<svg id="Layer_1" data-name="Layer 1" xmlns="http://www.w3.org/2000/svg" viewBox="0 0 206.78 41.39"><defs><style>.cls-1{fill:#231f20;}.cls-2{fill:#fff;}</style></defs><title>Artboard 4</title><path class="cls-1" d="M0,31.71V.87H3V29H20.85v2.7Z"/><path class="cls-1" d="M24.71,4.34V0h3V4.34Zm0,27.37V9.08h3V31.71Z"/><path class="cls-1" d="M43.26,32A9.36,9.36,0,0,1,39,31a11,11,0,0,1-3.34-2.58,11.64,11.64,0,0,1-2.2-3.69,12.2,12.2,0,0,1-.78-4.3,13.33,13.33,0,0,1,.76-4.5,11.71,11.71,0,0,1,2.15-3.76,10.56,10.56,0,0,1,3.32-2.56,9.63,9.63,0,0,1,4.28-1,8.71,8.71,0,0,1,5,1.45,14,14,0,0,1,3.65,3.67V9.08h2.65V31.79a9.28,9.28,0,0,1-.89,4.15,9,9,0,0,1-2.39,3,10.06,10.06,0,0,1-3.52,1.82,14.62,14.62,0,0,1-4.28.61A12.46,12.46,0,0,1,37.13,40a11.12,11.12,0,0,1-3.86-3.73l1.82-1.44A8.25,8.25,0,0,0,38.65,38a11.3,11.3,0,0,0,4.78,1,10.72,10.72,0,0,0,3.13-.46,7.56,7.56,0,0,0,2.58-1.35A6.24,6.24,0,0,0,50.9,35a7.32,7.32,0,0,0,.65-3.2V27.32A9.39,9.39,0,0,1,48,30.75,9.55,9.55,0,0,1,43.26,32Zm.82-2.48a7.17,7.17,0,0,0,2.57-.47,8.93,8.93,0,0,0,2.28-1.28A8.34,8.34,0,0,0,50.64,26a5.44,5.44,0,0,0,.91-2v-7a9,9,0,0,0-3.17-4,9.5,9.5,0,0,0-2.23-1.17,7.25,7.25,0,0,0-5.82.37,8,8,0,0,0-2.54,2.1,9.29,9.29,0,0,0-1.59,3,10.66,10.66,0,0,0-.54,3.34A9.28,9.28,0,0,0,36.31,24a8.88,8.88,0,0,0,1.8,2.88,8.7,8.7,0,0,0,2.67,2A7.65,7.65,0,0,0,44.08,29.53Z"/><path class="cls-1" d="M80,31.71h-3V19.07a10.23,10.23,0,0,0-1.32-5.78,4.45,4.45,0,0,0-3.89-1.91,6.71,6.71,0,0,0-2.5.5,9.14,9.14,0,0,0-2.32,1.37,9.42,9.42,0,0,0-1.89,2A8.44,8.44,0,0,0,64,17.85V31.71H61V0h3V14.2a10.24,10.24,0,0,1,3.73-4,9.69,9.69,0,0,1,5.17-1.47,7.06,7.06,0,0,1,3.3.71,6.15,6.15,0,0,1,2.21,2,8.75,8.75,0,0,1,1.26,3.08,18.27,18.27,0,0,1,.39,4Z"/><path class="cls-1" d="M97,30.62c-.17.09-.42.2-.76.35s-.71.29-1.15.43a11.09,11.09,0,0,1-1.47.39,8.15,8.15,0,0,1-1.74.18A6.35,6.35,0,0,1,90,31.71a4.19,4.19,0,0,1-1.52-.81,3.89,3.89,0,0,1-1-1.37,4.4,4.4,0,0,1-.39-1.91V11.42H84V9.08h3.13V1.43h3V9.08h5.21v2.34H90V26.8a2.3,2.3,0,0,0,.89,1.84,3,3,0,0,0,1.84.59A5.67,5.67,0,0,0,95,28.82a9.71,9.71,0,0,0,1.21-.59Z"/><path class="cls-1" d="M109.88,32.14a10.86,10.86,0,0,1-4.53-.93,11.13,11.13,0,0,1-3.59-2.57,11.75,11.75,0,0,1-2.36-3.75,12.12,12.12,0,0,1-.85-4.56,11.85,11.85,0,0,1,.85-4.5,11.6,11.6,0,0,1,2.34-3.69,11.34,11.34,0,0,1,12.64-2.52,10.89,10.89,0,0,1,3.54,2.54,12,12,0,0,1,3.13,8.12V21a1.68,1.68,0,0,1,0,.48H101.63a9.56,9.56,0,0,0,.85,3.36,9.26,9.26,0,0,0,1.84,2.67,8.26,8.26,0,0,0,2.59,1.76,7.71,7.71,0,0,0,3.1.63,8.18,8.18,0,0,0,2.18-.3,8.42,8.42,0,0,0,2-.83,7,7,0,0,0,1.65-1.28A5.25,5.25,0,0,0,117,25.8l2.57.69a7.52,7.52,0,0,1-1.48,2.28,10.25,10.25,0,0,1-2.22,1.79,11.17,11.17,0,0,1-2.78,1.17A12.24,12.24,0,0,1,109.88,32.14Zm8.34-12.94a9,9,0,0,0-2.67-5.91A8,8,0,0,0,113,11.6a7.91,7.91,0,0,0-3.11-.61,8.19,8.19,0,0,0-5.71,2.3,8.22,8.22,0,0,0-1.78,2.61,9.63,9.63,0,0,0-.8,3.3Z"/><path class="cls-1" d="M144.63,31.71h-2.95V19.07c0-2.7-.4-4.65-1.2-5.87a4.08,4.08,0,0,0-3.67-1.82,7.42,7.42,0,0,0-2.6.48,8.64,8.64,0,0,0-2.41,1.34,10.27,10.27,0,0,0-2,2.07,7.94,7.94,0,0,0-1.26,2.58V31.71h-3V9.08h2.69V14.2a10.63,10.63,0,0,1,4-4,10.86,10.86,0,0,1,5.63-1.52,6.72,6.72,0,0,1,3.17.69,5.44,5.44,0,0,1,2.08,2,8.94,8.94,0,0,1,1.13,3.08,21.79,21.79,0,0,1,.35,4Z"/><path class="cls-2" d="M163.87,25.63a5.91,5.91,0,0,0,3.08-.76,6.18,6.18,0,0,0,2.05-2A8.56,8.56,0,0,0,170.1,20a16.79,16.79,0,0,0,.33-3.33V.87h7.12V16.63a21.71,21.71,0,0,1-.8,6,13.8,13.8,0,0,1-2.48,4.86A11.49,11.49,0,0,1,170,30.77a14.54,14.54,0,0,1-6.15,1.2,14.39,14.39,0,0,1-6.3-1.26,11.53,11.53,0,0,1-4.23-3.37A13.82,13.82,0,0,1,151,22.46a21.93,21.93,0,0,1-.76-5.83V.87h7.12V16.63a16.1,16.1,0,0,0,.35,3.39,9,9,0,0,0,1.13,2.87,5.58,5.58,0,0,0,5.08,2.74Z"/><path class="cls-2" d="M196.92,32.14a8.91,8.91,0,0,1-4.51-1.09,7.41,7.41,0,0,1-3-3V41H182.5V8.9h6v3.7a9.05,9.05,0,0,1,3.15-3,8.81,8.81,0,0,1,4.49-1.09,9.78,9.78,0,0,1,4.24.91,10.29,10.29,0,0,1,3.34,2.5A11.88,11.88,0,0,1,206,15.61a13.29,13.29,0,0,1,.8,4.63A14.35,14.35,0,0,1,206,25a11.82,11.82,0,0,1-2,3.76,9.49,9.49,0,0,1-3.13,2.5A8.66,8.66,0,0,1,196.92,32.14Zm-2.34-5.86a4.33,4.33,0,0,0,2.06-.5,5.64,5.64,0,0,0,1.63-1.33,5.74,5.74,0,0,0,1.06-1.93,7.18,7.18,0,0,0,.37-2.32,6.52,6.52,0,0,0-.41-2.33A5.81,5.81,0,0,0,198.16,16a5,5,0,0,0-1.74-1.22,5.52,5.52,0,0,0-2.19-.43,5.07,5.07,0,0,0-2.76.84,5.57,5.57,0,0,0-2,2.28v4.69a7.16,7.16,0,0,0,2.11,2.91A4.62,4.62,0,0,0,194.58,26.28Z"/></svg>