<svg id="Layer_1" data-name="Layer 1" xmlns="http://www.w3.org/2000/svg" viewBox="0 0 259.06 85.86"><defs><style>.cls-1{fill:#231f20;}.cls-2{fill:#fff;}</style></defs><title>loose it logo</title><path class="cls-1" d="M0,82.58V29.46H5.25V77.94H35.92v4.64Z"/><path class="cls-1" d="M57.61,83.32a18.54,18.54,0,0,1-7.78-1.6,19.34,19.34,0,0,1-6.09-4.38,19.83,19.83,0,0,1-4-6.43,21.35,21.35,0,0,1-1.42-7.71,20.93,20.93,0,0,1,1.46-7.78,20.32,20.32,0,0,1,4-6.43,19.36,19.36,0,0,1,6.1-4.41,17.88,17.88,0,0,1,7.7-1.65,18.16,18.16,0,0,1,7.74,1.65A19.3,19.3,0,0,1,71.49,49a20.5,20.5,0,0,1,4,6.43A20.93,20.93,0,0,1,77,63.2a21.14,21.14,0,0,1-1.43,7.71,19.81,19.81,0,0,1-4,6.43,19.18,19.18,0,0,1-6.13,4.38A18.79,18.79,0,0,1,57.61,83.32Zm-14.14-20a16.44,16.44,0,0,0,4.16,11,13.7,13.7,0,0,0,4.48,3.33,12.9,12.9,0,0,0,5.5,1.2,12.62,12.62,0,0,0,5.5-1.24,14.5,14.5,0,0,0,4.53-3.37,16.09,16.09,0,0,0,3.06-5A17.25,17.25,0,0,0,70.7,57a16.05,16.05,0,0,0-3.06-5,14.65,14.65,0,0,0-4.53-3.37,12.61,12.61,0,0,0-5.5-1.23,12.4,12.4,0,0,0-5.46,1.23,14.39,14.39,0,0,0-4.49,3.41,16.36,16.36,0,0,0-3.06,5A16.87,16.87,0,0,0,43.47,63.28Z"/><path class="cls-1" d="M102.12,83.32a18.51,18.51,0,0,1-7.78-1.6,19.39,19.39,0,0,1-6.1-4.38,20,20,0,0,1-4-6.43,21.55,21.55,0,0,1,0-15.49,20.32,20.32,0,0,1,4-6.43,19.43,19.43,0,0,1,6.09-4.41,18,18,0,0,1,7.71-1.65,18.16,18.16,0,0,1,7.74,1.65A19.41,19.41,0,0,1,116,49a20.29,20.29,0,0,1,4,6.43,20.73,20.73,0,0,1,1.46,7.78,21.14,21.14,0,0,1-1.42,7.71,20,20,0,0,1-4,6.43,19.29,19.29,0,0,1-6.13,4.38A18.79,18.79,0,0,1,102.12,83.32ZM88,63.28a16.41,16.41,0,0,0,1.12,6.09,16.62,16.62,0,0,0,3,4.94,13.74,13.74,0,0,0,4.49,3.33,12.87,12.87,0,0,0,5.5,1.2,12.65,12.65,0,0,0,5.5-1.24,14.34,14.34,0,0,0,4.52-3.37,15.93,15.93,0,0,0,3.07-5,17.25,17.25,0,0,0,0-12.23,15.89,15.89,0,0,0-3.07-5,14.49,14.49,0,0,0-4.52-3.37,12.64,12.64,0,0,0-5.5-1.23,12.34,12.34,0,0,0-5.46,1.23,14.39,14.39,0,0,0-4.49,3.41,16.38,16.38,0,0,0-3.07,5A17.08,17.08,0,0,0,88,63.28Z"/><path class="cls-1" d="M143,83.32a27.3,27.3,0,0,1-8.9-1.49,21.49,21.49,0,0,1-7.48-4.34l2.32-3.44a25.46,25.46,0,0,0,6.69,4,19.81,19.81,0,0,0,7.3,1.34,13.16,13.16,0,0,0,7.51-1.9,6.19,6.19,0,0,0,2.81-5.43,4.72,4.72,0,0,0-.75-2.73,6.36,6.36,0,0,0-2.21-1.9A16.87,16.87,0,0,0,146.59,66c-1.47-.43-3.18-.86-5.13-1.31q-3.36-.82-5.83-1.65a17.93,17.93,0,0,1-4.08-1.87,6.75,6.75,0,0,1-2.39-2.58,8.45,8.45,0,0,1-.79-3.85,11.08,11.08,0,0,1,1.16-5.16,10.59,10.59,0,0,1,3.15-3.71,14.28,14.28,0,0,1,4.63-2.2,20.73,20.73,0,0,1,5.65-.75,21.9,21.9,0,0,1,8.15,1.46A15.93,15.93,0,0,1,157,48.24l-2.46,3a13.7,13.7,0,0,0-5.28-3.36,18.82,18.82,0,0,0-6.47-1.13,15.75,15.75,0,0,0-3.74.42,9,9,0,0,0-3,1.3A6.47,6.47,0,0,0,134,50.75a6.81,6.81,0,0,0-.74,3.25,5.3,5.3,0,0,0,.52,2.54,4.5,4.5,0,0,0,1.72,1.69,14.62,14.62,0,0,0,3,1.27c1.22.37,2.7.76,4.45,1.16,2.49.6,4.69,1.19,6.58,1.79a20.52,20.52,0,0,1,4.75,2.1,8.11,8.11,0,0,1,2.88,2.92,8.34,8.34,0,0,1,1,4.18A10.17,10.17,0,0,1,154,80.18Q149.92,83.33,143,83.32Z"/><path class="cls-1" d="M183.28,83.32a18.79,18.79,0,0,1-7.82-1.6,19.33,19.33,0,0,1-6.17-4.42,20.45,20.45,0,0,1-4.07-6.47A20.87,20.87,0,0,1,163.76,63a20.43,20.43,0,0,1,1.46-7.75,20,20,0,0,1,4-6.35,19.22,19.22,0,0,1,6.18-4.34,19,19,0,0,1,21.69,4.37,20.64,20.64,0,0,1,5.39,14v1.2a2.92,2.92,0,0,1-.08.82H169.07a16.25,16.25,0,0,0,1.46,5.8,15.86,15.86,0,0,0,3.18,4.6,14.07,14.07,0,0,0,4.45,3,13.34,13.34,0,0,0,5.34,1.08,13.84,13.84,0,0,0,3.75-.52,15.26,15.26,0,0,0,3.44-1.42,12.85,12.85,0,0,0,2.84-2.21,9.38,9.38,0,0,0,1.94-2.88l4.42,1.2a12.9,12.9,0,0,1-2.55,3.93,17.65,17.65,0,0,1-3.81,3.06,18.31,18.31,0,0,1-4.79,2A20.44,20.44,0,0,1,183.28,83.32ZM197.64,61A15.65,15.65,0,0,0,193,50.86a13.85,13.85,0,0,0-4.41-2.92,13.69,13.69,0,0,0-5.35-1,14,14,0,0,0-9.84,4,14.29,14.29,0,0,0-3.06,4.49A16.8,16.8,0,0,0,169,61Z"/><path class="cls-2" d="M209.31,82.58V29.46H223.9V82.58Z"/><path class="cls-2" d="M259.06,80.41a44.46,44.46,0,0,1-6.4,2.13,27.41,27.41,0,0,1-6.69.86,17.09,17.09,0,0,1-4.57-.6,10,10,0,0,1-3.78-2,9.15,9.15,0,0,1-2.54-3.51,13.71,13.71,0,0,1-.93-5.39v-18h-4.87V43.23h4.87V30.89h14.21V43.23h7.7v10.7h-7.7v13a3.67,3.67,0,0,0,.82,2.73,3.1,3.1,0,0,0,2.25.79,9.79,9.79,0,0,0,2.39-.34,15.9,15.9,0,0,0,2.69-.93Z"/></svg>